<?xml version="1.0" standalone="no"?><svg xmlns="http://www.w3.org/2000/svg" viewBox="0 0 1440 320"><path fill="#7777d1" fill-opacity="1" d="M0,192L34.3,202.7C68.6,213,137,235,206,213.3C274.3,192,343,128,411,128C480,128,549,192,617,218.7C685.7,245,754,235,823,213.3C891.4,192,960,160,1029,170.7C1097.1,181,1166,235,1234,245.3C1302.9,256,1371,224,1406,208L1440,192L1440,0L1405.7,0C1371.4,0,1303,0,1234,0C1165.7,0,1097,0,1029,0C960,0,891,0,823,0C754.3,0,686,0,617,0C548.6,0,480,0,411,0C342.9,0,274,0,206,0C137.1,0,69,0,34,0L0,0Z"></path></svg>